/* XPM */
static char *_dc4eebd4283487ea48734c1eca7094bQGwInB8jSYB1bLEF[] = {
/* columns rows colors chars-per-pixel */
"128 128 39 1 ",
"  c #F29D2B",
". c #F2A031",
"X c #F3A53D",
"o c #F3A944",
"O c #F4AC4B",
"+ c #F4AF51",
"@ c #F4B155",
"# c #F5B45C",
"$ c #F5B762",
"% c #F5B866",
"& c #F6BB6C",
"* c #F6BE73",
"= c #F6C077",
"- c #F7C27C",
"; c #F7C683",
": c #F7C887",
"> c #F8C887",
", c #F7C888",
"< c #F8CA8C",
"1 c #F8CD93",
"2 c #F9CF98",
"3 c #F9D19C",
"4 c #F9D5A3",
"5 c #FAD7A9",
"6 c #FAD9AD",
"7 c #FADCB4",
"8 c #FBDFB9",
"9 c #FBE1BD",
"0 c #FBE3C3",
"q c #FCE6CA",
"w c #FCE8CE",
"e c #FCEBD3",
"r c #FDEEDB",
"t c #FDF0DE",
"y c #FDF2E4",
"u c #FEF6EB",
"i c #FEF8EF",
"p c #FEFAF4",
"a c #FFFFFF",
/* pixels */
"aaaaaaaaaaaa9;uaaaaaaaaaaaaq5aaaaaa9:raaaaaaaaaaaaaaaa9,paaaaaaaaay3aaaaaaaaaaaaaaay6;3yaaaa02a2taaaaaa0:eaaaaaaaaaaaaaaaaq:uaaa",
"aaaaaaaaaaa71uaaaaaaaaaaaaa3eaaaap43uaaaaaaaaaaaaaaaa0<uaaaaaaaaaa06aaaaaaaaaaaape318uaaaaay<ya60aaaaa72yaaaaaaaaaaaaaaaaw,yaaaa",
"aaaaaaaaai34paaaaaaaaaaaaat2yq61q27aaaaaaaaaaaaaaaaa72uaaaaaaaaaaa5waaaaaaaaaap023waaaaaaap2qaa06aaau36paaaaaaaaaaaaaaaa0<yaaaaa",
"aaaaaaaar<8aaaaaaaaaaaaaat;&267o#eaaaaaaaaaaaaaaaaa43paaaaaaaaaaap1paaaaaaaap816taaaaaaaaa47aaar3aay10aaaaaaaaaaaaaaaaa71uaaaaaa",
"aaaaaaa8<raaaaaaaaaaaay72&;yaa;@;paaaaaaaaaaaaaaai26aaaaaaaaaaaaaq4aaaaaaap8<6uaaaaaaaaaa73aaaau1ar<eaaaaaaaaaaaaaaaap44paaaaaaa",
"aaaaay24uaaaaaaaaaapq317e,yaa7=u2yaaaaaaaaaaaaaat,9aaaaaaaaaaaaaa3raaaaap9<6uaaaaaaaaaaa02paaaau2e<taaaaaaaaaaaaaaaay:4aaaaaaaaa",
"aaap8,qaaaaaaaaaau7<4eaa49aaw,ua60aaaaaaaaaaaaa0,eaaaaaaaaaaaaaae3aaaaa016uaaaaaaaaaaaae,uaaaaap*,yaaaaaaaaaaaaaape4*@,aaaaaaaaa",
"aaw14uaaaaaaaaar4<8uaaa65aar=raaq6aaaaaaaaaaap42uaaaaaaaaaaaaaap1eaaae14yaaaaaaaaaaaaar<yaaaaaar%raaaaaaaaaaaapq4,#=r1*yaaaaaaaa",
"e23raaaaaaaaar410paaaa93pay=0aaar3aaaaaaaaaar<7aaaaaaaaaaaaaaaa96aau32raaaaaaaaaaaaaar,raaaaaap;-aaaaaaaaaaae4267,6p7678aaaaaaaa",
"2waaaaaaaaar31qaaaaaa73paa,6aaaay2aaaaaaaap6<eaaaaaaaaaaaaaaaar*733<0aaaaaaaaaaaaaaay,eaaaaaaa433aaaaaaaau714wu8<wae1pe3aaaaaaaa",
"aaaaaaaaay41waaaaaap63paa63aaaaau2aaaaaaaq,6paaaaaaaaaaaaaapw3&<4@#uaaaaaaaaaaaaaaar:eaaaaaaa0406aaaaaat517uae14pay<yau1paaaaaaa",
"aaaaaaau41qpaaaaaau36aaa7=paaaaau2paaaae23yaaaaaaaaaaaaape413&0q#<2yaaaaaaaaaaaaaae,eaaaaaaau1u70aaaae320par32raap1qaaa2uaaaaaaa",
"aaaaap8<9paaaaaaaw1qaaa0Oqaaaaaai2aape11eaaaaaaaaaaaaay723wy397-=p79aaaaaaaaaaaaaw:raaaaaaaa69a2raaw33eaar3,qaaaa47aaaa4raaaaaaa",
"aaaae26uaaaaaaay43yaaaq%:aaaaaaay2y923eaaaaaaaaaaaape329uau2634,eae4aaaaaaaaaaaa0<yaaaaaaaay2pu2pe24rap022qaaaaa73aaaaa4eaaaaai3",
"aau43yaaaaaaap810aaaa0<1waaaaaay6$<6yaaaaaaaaaaaap024epaar<62047aay2aaaaaaaaaaa61uaaaaaaaaa79a9143eyq4<4raaaaaa01paaaaa6qaaaay17",
"aw19paaaaaau927paaaa0,y<ryrw84<1=3aaaaaaaaaaaaap916yaaaa9192e74aaap1paaaaaaaap33paaaaaaaaai-3=o@<41<4wpaaaaaaaq<uaaaaaa6qaaa0<ea",
"43yaaaaaae5<7uaaaaa9<ua7@:358eua6qaaaaaaaaaaap8<6uaaaay35e1tq1paaaa1uaaaaaaay,7aaaaaaaapq42- .o&8wyaaaaaaaaaae<yaaaaaaa5wau44uaa",
"7paapyq4<30paaaaaa7<uaaa0,eaaaap2yaaauq5eaap916uaaaap71wy2rr,uaaaaa3yaaaaaa0:waaaaaape416e011o3<paaaaaaaaaaae,yaaaaaaaa4w010aapy",
"3332126quaaaaaaap63paaaaar14uaay3pr7226&;pq16uaaaap027pi2ey<taaaaaa3taaaap41yaaaaay714wpi43y4<3#qaaaaaaaaaae,yaaaaaaaap-;7uau722",
"yyyupaaaaaaaaaap34paaaaaaap9<6y6=230yaw1=:3yaaaay717uaa40y,eaaaaaaa3yaaae<7aaaaar418yaaw,0a0*ua4$5raaaaaaae,taaaaaaau9<%ypw327ya",
"aaaaaaaaaaaaaay,9aaaaaaaaaaay;@O;wpaay=1*5aapy0328uaaa94y<qaaaaaaaa2yau4<taaaaq33wpaap72yar%waaw4q229ypaaq<yaaaaay0417q>715epaaa",
"aaaaaaaaaaaaa0:waaaaaaaaaat4<74273347&X<3-73237raaaaay2r10aaaaaaaap2y9,8aaap014raaaau36pau*7aaay3aat73331$6w0873227rpy:*8uaaaaaa",
"aaaaaaaaaaap61yaaaaaaaapw320pp1yaap0#:775*0tpaaaaaaaa4710aaaaaaaaay&,4uaap014yaaaaay<0aap:4aaaau2aaaaau,;87779qriaae31&taaaaaaaa",
"aaaaaaaaaat16paaaaaaapq13eaaa67aaaw@:aaap2paaaaaaaaar-,qaaaaaaaau7*-uaaaw24taaaaaar<eaaa23aaaaai1paaap34paaaaaaaae22et3aaaaaaaap",
"aaaaaaaap8,waaaaaaap0<4raaaae1paa7%*uaaaa2uaaaaaaaaa,$eaaaaaapq31730aae23raaaaaaae<yaap14aaaaaap1paay17aaaaaaaar32eaa40aaaaaaap1",
"aaaaaaae15paaaaaaaq14yaaaaay<yap4<;yaaaaa3yaaaaaaaaq&raapur83<4wpa3yu42eaaaaaaaar<yaar&1paaaaaau1aaq:waaaaaaay32eaaay<aaaaaaap36",
"aaaaay32eaaaaaaae13taaaaaau2qau14,eaaaaaa3raaaaaaa9;=242<137epaaat1810aaaaaaaaay<rap8O,paaaaaaay2p61yaaaaaau61qaaaaa3qaaaaaap47a",
"aaay4<0paaaaaay32eaaaaaaap30au17<qaaaaaaa3taaaaap53uw&4tuaaaaaaaa3$6uaaaaaaaaap1ear2$<paaaaaaaar;15paaaaaa0<8paaaaaq3aaaaaaa54aa",
"pe3<0paaaaaap71qaaaaaaaau29au1910aaaaaaaa2yaaaau16paay14uaaaaaaa7&eaaaaaaaaaaa49u41:2paaaaaaaaa3%eaaaaaay24uaaaaaay<yaaaaaa54aaa",
",3eaaaaaaaaw<7paaaaaaaar1qap2819aaaaaaaap1uaaae,0aaaaap8<7iaaau4@9aaaaaaaaaaa0;41943paaaaaaaaw<$waaaaap91eaaaaaaap2waaaaaa43paaa",
"uaaaaaaaap42yaaaaaaaaa01eaa3627aaaaaaaaau2aap6<yaaaaaaaau6<5re233aaaaaaaaaau0%:qu44paaaaaaar22e2uaaaay35paaaaaaaa37aaaaap44aaaaa",
"aaaaaaaar17aaaaaaaaau43uaa7119aaaaaaaaaae3ar16paaaaaaapreap0*#,=9uppappyw721&6au36aaaaaaae2<qar3aaaae1qperaaaaap36aaaaap25aaaaaa",
"aaaaaaa0<raaaaaaaap9<0aaar=:0aaaaaaaaaaa866<eaaaaaay9321@ra92r-<3112221349ty2py,9aaaaau9<2qaaa60aaa9*342:#uaaau37aaaaau17aaaaaaa",
"aaaaap63paaaaaaaaw24uaaap*&eaaaaaaaaaaap-=7paaaay9227rp4;684p75aaappippaaaa79e<eaapy9316yaaaau1uay4#<9ti2;0aay29aaaaat,0aaaaaaaa",
"aaaap36aaaaaaap024taaaaa7%raaaaaaaaaap0=*uaaapq328yaaa03y&3p83paaaaaaaaaaaa31&8q74<16epaaaaaa7401@3uaaa75e3a01eaaaaaq:eaaaaaaaaa",
"aaap38aaaaape6<5raaaaaa6*yaaaaaaaaau7<410aay6<6rpaaaay,u0#y73paaaaaaaaaaaau-o*468euaaaaaaaaar$:6,5aaaaw1pp;24uaaaap71yaaaaaaaaaa",
"60e,5uyrq73<30uaaaaaap4#7aaaaaaau03<8uu2ue310paaaaaap<er32-4paaaaaaaaaaaaq>0e,9aaaaaaaaaapq3@7a74aaaay<yp9#8aaaaau24paaaaaaaaaaa",
"05$-333360rpaaaaaaaar<7<uapiye62<4epaa5:33eaaaaaaaaa38u10*1aaaaaaaaaaaau42yaaw%-eaaaaaap01433a93aaaap200273waaaaw,0aaaaaaaaaaaaa",
"a67aaaaaaaaaaaaaaap9,ea2=211249rpaaaa9$3yaaaaaaaaaa74a3,236aaaaaaaaaap9,9ue4237#@3epap016ur1ue<paaaa2%16ua70aap42yaaaaaaaaaaaaaa",
"74aaaaaaaaaaaaaaay34paau,<ypaaaaaaa0:@eaaaaaaaaaaa93p0@4pe4aaaaaaaaaw139524wua74,q4<3=3yay<yp2rapr9-*7uaaa07a0,7paaaaaaaaaytaaaa",
",paaaaaaaaaaaaap7,qaaaaaa7,waaaaaw24,7aaaaaaaaaaae1e5%waar3aaaaaapw2-<24wpaaae<p4ew-22233&10,-6323*;paaaaa0133yaaaaaaauq42<#yaaa",
"yaaaaaaaaaaaaaq<6uaaaaaaaar23eay33t94aaaaaaaaaaae&<3:6aaar4aaaay9,*=20uaaaaau<ya4&4yaap0*702=0wtp01iaaaaar;&eaaaaaau0316wu4=9aay",
"aaaaaaaaaaaaw<3yaape62<aaaaae,*$7a03paaaaaaaaau9%;qu3uaaae4ay03;==4raaaaaaap2qy3=1aaaaq<raa3eaaaw<uaaapw2217aaaape416rpaa03e2ae,",
"aaaaaaaaap013rau0314q3#eaaaaq<662-$9tyuuuyr063=#eaar1uyye3&2231<6yaaaaaaaaa648<0y2aap62uaae3aaae<yapr7<4ea70aau814epaaaay,ua172r",
"aaaaaape5<6ypw427rpar276aau43yaa4<0733222247w0:eaaap<$124-4t717uaaaaaaaaaa9-<4uap2pe17paaa4qaaw;0q4<29yaaa4ey4<7yaaaaaap1wap*,ua",
"aaur03,3qut614rpaaai<eu1pe<qaau36aaaaaapaaaar,raaaaai32ua3317uaaaaaaaaaaaw+-eaaap,42raaaaa7;3;$=26quaaaaaa;,2qpaaaaaaaa47at2*0aa",
"31227wppe320paaaaaa37aa<43yaaq<0aaaaaaaaaaaw,raaaaaaaa0:4$4uaaaaaaaaaaaae@<uaaap7@7paaaaaap2@*ypaaaaaaaae,%eaaaaaaaaaa74p6<r07aa",
"tppaap024raaaaaaaa73aap%3pau43yaaaaaaaaaaa0,yaaaaaaaaar:$@0paaaaaaaaaaar*7aaay616,paaaaaaaa7*:0aaaaaaae2345aaaaaaaaaaq,817paw6aa",
"1rap8<6uaaaaaaaaaw1pay2-qp7<0aaaaaaaaaaaa7<uaaaaaaaau43t75614euaaaaaaar:wat8219ip1paaaaaap53py32epaar33ra4eaaaaaaaaae@;6yaaae4aa",
"w>>;7uaaaaaaaaaat,yat1e7-17paaaaaaaaaaap33paaaaaaap0<0ap1uapq42369qer9@:4<27raaau2aaaaaau25aaaae33932eaay2paaaaaapr4*4yaaaaae4aa",
"9<3,3wpaaaaaaaay<ray-64*,iaaaaaaaaaaaay17aaaaaaaau24uaa06aaaaapyq967-@60euaaaaaar3aaaaar,0aair0pp2$=27wy57pppue932-#eaaaaaaaw5aa",
"7uape4139eyupau;7e7%*4e97aaaaaaaaaaaaw,qaaaaaaaaq,qaaap<yaaaaaaaaaae;eaaaaaaaaaa07aaaa0<ey0323#227pay06,@<121247ee,eaaaaaaaa07aa",
"aaaaaapr943131$*32$0paa07aaaaaaaaaap61yaaaaaaap63uaaaa77aaaaaaaaaaq-raaaaaaaaaaa4eaap4;4327ta7O#taaaaaa40apppaaay<eaaaaaaaaa70aa",
"aaaaaaaaaaaay,7ap3qaaaa89aaaaaaaaay14uaaaaaaau36paaaar<paaaaaaaaa9$waaaaaaaaaaap<pae$@<7raaaw%71yaaaaaw2paaaaaar,eaaaaaaaaaa3raa",
"aaaaaaaaaaap37aa94aaaaa6qaaaaaaap4+*>,aaaaaay10aaaaap1eaaaaaaaaa7O6aaaaaaaaaaaaq5u4&3raaaaa6$ea4qaaaay<yaaaaaae,eaaaaaaaaaap1paa",
"aaaaaaaaaap27aar2paaaaa3taaaaar4;;7r1$raaaay<waaaaap39aaaaaaaap4&2aaaaaaaaaaaaa,*-7uaaaaap2o9aa07aaap2waaaaaaw,raaaaaaaaaaar3aaa",
"aaaaaaaaai29aaa2eaaaaap1paay6%+1taa0377aaay<eaaaaap45aaaaaaaay<6<yaaaaaaaaaaae-O3uaaaaaay2*4aaar4aap28aaaaaa8<yaaaaaaaaaaaa60aaa",
"aaaaaaaay<0aaa04aaaaaar4pw<@O:raaay,uy2aau1eaaaaaa45aaaaaaaaq,e87aaaaaaaaaaw=+owaaaaaaay222paaay2ap37aaaaap62paaaaaaaaaaaap1uaaa",
"aaaaaaar,qaaaa2taaaaaa6=&O$3taaaap1wap<pp2qaaaaap36aaaaaaap42yu1iaaaaaaaaw:$454aaaaaaay26<uaaaau2y28aaaaau26paaaaaaaaaaaaa06aaaa",
"aaaaaaq,raaaae3aaaaay3OO;9uaaaaaa47aaa3t47aaaaay18aaaaaaae,7pa06aaaaayw2=10pu<yaaaaaay17,taaaaai=,qaaaaae:9aaaaaaaaaaaaaap<yaaaa",
"aaaaa7<yaaaaa01976,*;%>iaaaaaaaa73aaaa534aaaaa01eaaaaaau4<raaa739753<*O-waaa2qaaaaaau27<eaaaaap7$raaaaa7,taaaaaaaaaaaaaaa76aaaaa",
"aaap33paaaaaaa2$3&*0p3raaaaaaaaq1paaaa6%uaaay34uaaaaar6&o0aaaai:%8ww4,qpaaa47aaaaaaa461waaaaar23<aaaay14paaaaaaaaaaaaaaay<paaaaa",
"aar,9aaaaaaaaay*@3pa04aaaaaaaae,yaaaaa16aau72waaape3$#40%2aaaaap62927iaaap64aaaaaaa91<0aaaau62ey3aap7,qaaaaaaaaaaaaaaaap1eaaaay9",
"p8<raaaaaaaau710e34e1uaaaaaaat,yaaaaay@9u829paar6-@#3ya301uaaaaai:#,uaaaa64paaaaaay-;qaaau619aae4ae<5uaaaaaaaaaaaaaaaaa48aau9227",
"<4paaaaaaaa0,7paaa0#-epaaaaay,eaaaaaa4&-28pap8:$$-7uaa74a4waaaae<9p915rp46aaaaaaaa;$wape420paaa8232raaaaaaaaaaaaaaaaaa66pe4<7taa",
"raaaaaaaar13uaaaaa84e316wupy<eaaapyw4$$5par3@O*4rpaaae1pa97aaa91raaap0;#=eupaaaaaqO6q524epaaape&;eaaaaaaaaaaaaaaaaaaa72923wpaaaa",
"aaaaaaap61eaaaaaa03paauq63:$=44433360;#:**;,7rpaaaaay,yaae4ap64iaaaaa9<wq5322434,@*37epaaaay721=paaaaaaaaaaaaaaaaaap3$,6yaaaaaaa",
"aaaaaar16paaaaaa01uaaaaaat-0yrryupaaaeO@:eaaaaaaaaai1waaau2u37aaaaar25paaaauytt4+1aaaaair72<7uq5aaaaaaaaaaaaaaaaaay:%7uaaaaaaaaa",
"aaaaa9,eaaaaaaa92uaaaaaat,eaaaaaaaaae,%12yaaaaaaaaa28aaaap:10aaaay41eaaaaaaaaa7243w0742<28taaa3raaaaaaaaaaaaaaaau4;8paaaaaaaaaat",
"aaap43iaaaaaaa63uaaaaaae,raaaaaaaae2346aq<6yaaaaaa55aaaaay$0aaar510aaaaaaaaau34pp:$60qypaaaaae2paaaaaaaaaaaaaap5#,yaaaaaaaaaaar;",
"aau27paaaaaau26paaaaaa0<yaaaaaaay43ea4eaap914wpaa83aaaaap2*pu0210paaaaaaaaae,9aaap42yaaaaaaaa3eaaaaaaaaaaaaap8@$0aaaaaaaaaaaay<e",
"ay<0aaaaaaa0<qaaaaaaa72uaaaaaai61qaau1paaaape4143*ripppu<,%216raaaaaaaaaaa9<eaaaaaaw<6uaaaaa03aaaaaaaaaaaaaw&+4iaaaaaaaaaaaau<ea",
"y,waaaaaay23uaaaaaai34paaaaip0<7paaa77aaaaaaaap3*422231$=3=taaaaaaaaaaaay24uaaaaaaaap7<6taau<tuaaaaaaaaaat1$4uaaaaaaaaaaaaau<qaa",
":eaaaaay51qaaaaaaay<8aau042%-4uaaaai1uaaaaaaaa92uaaapp02ay3aaaaaaaaaaap7,qaaaaaaaaaaaap0337;%2%eaaaaaue6*-7paaaaaaaaaaaaaau<0aaa",
"raaaar610paaaaaaa0<eu9216e6$:aaaaaa77aaaaaaaa91uaaaaau1yaw4aaaaaaaaaaw<4uaaaaaaaaaaaaaay7=X&**o&664421:@2paaaaaaaaaaaaaaau<0aaaa",
"apt8<3qpaaaaaaau4,7327rap3@w1uaaaar1paaaaaaa72iaaaaaa69aa70aaaaaaaae22raaaaaaaaaaaaai032832au;0-0eetu0<eaaaaaaaaaaaaaaaay,qaaaaa",
"3238yaaaaaaaaaq%%<6rpaay1$7a4qaaap1eaaaaaap53paaaaaat2paa2yaaaay92:2eaaaaaaaaaaaaar5<6tp93pa38a3eaaa63uaaaaaaaaaaaaaaaar,waaaaaa",
"ruaaaaaaaaaat:O-qpaaaae123aa97aaa48aaaaaap44paaaaaaa4qaay2ape4*O+X&paaaaaaaaaaapq320paa63pa94aa88ap36paaaaaaaaaaaaaaaaw:raaaaaaa",
"aaaaaaaaaay4%2raaaaaaq291uaae4aa54aaaaaau17aaaaaaaau1aaa813$O$;8631yaaaaaaaaap014raaay26aae<uaae4u29aaaaaaaaaaaaaaaaa8<yaaaaaaaa",
"aaaaaaaay4-4yaaaaaaa03e<raaay3a74paaaaae,0aaaaaaaaat,643@@$10uay<i79aaaaaaap8<6yaaaaw<0aay,yaaay,10aaaaaaaaaaaaaaaap43iaaaaaaaaa",
"aaaaape1*6uaaaaaaaa02y2qaaaap<44paaaaa9,raaaaaaaaaap2.#-3iaaaap<eae4aaaaap816uaaaau43taai<waaaay$qaaaaaaaaaaaaaaaay16aaaaaaaaaaa",
"aaie4$#4uaaaaaaaaaw2y38aaaaay%6paaaap43uaaaaaaaaapq248,&yaaaaa47aay1aaap0<6uaaaap8<0aaap28aaaap<*aaaaaaaaaaaaaaaaw,qaaaaaaaaaaaa",
"52,*#3uaaaaaaaaaat<y46aaaaae,*iaaaae,7aaaaaaaaap914yaa4-2wpaa83aaap1paw<5uaaaai916uaaaa36aaaaa441paaaaaaaaaaaaau3O9aaaaaaaaaaaaa",
"q013yaaaaaaaaaaap1e65aaaap63e1paap6<eaaaaaaaap9<6uaaaw2pr32091paaaa2q33yaaapr5<7uaaaaa44aaaaa84u2paaaaaaaaapr7*%4%:aaaaaaaaaaaaa",
"51waaaaaaaaaaaaa6774paaaq27au1aaq<7paaaaaaap015uaaaay1yaaay1@,9ruap*;eapy04120paaaaaa64aaaaar1pu2aaaaaaaar72:$-rq2<yaaaaaaaaaaaa",
"9paaaaaaaaaaaaae243aaae34yaat3e23taaaaaaaaq16uaaaaau<eaaaay<et842=&o,32126quaaaaaaaa43paaaaa2eae4aaaaau9237310ay,u60aaaaaaaaaaaa",
"4eaaaaaaaaaaaaa1:4pp024raaaa7$2waaaaaaaae23yaaaaaau1qaaaau<waaap4,r,qyupaaaaaaaaaaa44paaaaa04aa07aaat427w7,7pap1waw4aaaaaaaaaaa0",
"q217rpaaaaaaaaqO<q416taaai02$7aaaaaaaau4<eaaaaaaay1qaaaau<qaaay17aa2yaaaaaaaaaaaap34aaaaaap1uaa4eae330w417uaaa46aay2aaaaaaaaaa71",
"aay831469qqq07%@26epaau04<6r1uaaaaaaa0,9paaaaaaae<eaaaau10aaaw<eaap2uaaaaaaaaaaap26aaaaaaaq5aap183276220paaaa93aaap1paaaaaaap44p",
"aaaaaptq87775+&yyyr05224wpat2aaaaaai33uaaaaaaaa81yaaaau<0aaa92uaaau1aaaaaaaaaaay,8aaaaaaaa3qpi8o#-<29yaaaaaae<uaaap1uaaaaaar18aa",
"aaaaaaaaaaay<92$13370ypaaaa60aaaaaw<0aaaaaaaay24paaaay<0aaa63paaaae4aaaaaaaaaar,qaaaaaaaaaq$@%@<9epaaaaaaaay,yaaaaa2yaaaap81eaaa",
"aaaaaaaaaa0,eap22uaaaaaaaau1iaaaa82tpiaaaaap7<waaaaar,eaaa64aaaaaa79aaaaaaaaa0,raaaaaaaaaae*@32paaaaaaaaaay<eaaaaaa3yaaar13yaaaa",
"aaaaaaaap61uaaaa9,0paaaaaa77aaap2=63--aaap017paaaaae,eaaa64aaaaaaa2yaaaaaaap43uaaaaaaaaay32ry%=yaaaaaaaaau1qaaaaaaa3yar,@=<&uaaa",
"aaaaaaay16paaaaaau4<0paaay1papw;$40y2&ru925uaaaaaa9<yaaa74paaaaaar2aaaaaaay<7paaaaaaaap71qpay18<6yaaaaaau19aaaaaaaa191%;8y6%9aaa",
"aaaaaa0,qaaaaaaaaaay616ep40y6;@9aaa9<3&17uaaaaaap62uaaaw2paaaaaaa40aaaaaa9,eaaaaaaaaae17paaa3qap0130yaap20aaaaaape4@<0uaae1w2aaa",
"aaaay33uaaaaaaaaaaaaauq4%@=#2%4eq93#,3;paaaaaaau26paaay1yaaaaay03O7aaaay23uaaaaaaaap43taaaa84aaaapr6234*,eree04-&,5,aaaau<yp<paa",
"aap7,0aaaaaaaaaaaaaaaau4&406$15466%eap1iaaaaaae,0aaaaa3qaaar6237-o=aap6,qaaaaaaaaar17aaaaaw2paaaaaaaae*375663&#1rae4aaap30aa3raa",
"p016uaaaaaaaaaaaaaaar4*$yaa38aaaa30aaa2yaaaap7<yaaaaa04ay7130yarO63w0,7paaaaaaaaa91raaaaar1yaaaaaaaay<qaaay628uaaa79aaa74aaa70aa",
"<4yaaaaaaaaaaaaaaae336,raa74aaaa65aaaa4eaaar15paaaaai:7318uaaap%-u1%5yaaaaaaaaap63uaaayew1raaaaaaaar,waay410paaaaa2yaa01paaa07aa",
"yaaaaaaaaaaaaaaar33ee1raae2paaa93paaaa70ap6<eaaaaaau3$5taaaaaa2X2<<2aaaaaaaaaap37apw613$$taaaaaaaa0,ray4<0paaaaaat2aae,uaaaaw6aa",
"aaaaaaaaaaaaaar43ea0<yaap1raaaq1iaaaaa880<7paaaaay6,%yaaaaapr3X-9pu1paaaaaaaau36w414qu7=;paaaaaaa71uu510paaaaaaaa50ay:raaaaae4aa",
"aaaaaaaaaaaau52wap43iaaa77aaae<yaaaaap3$4uaaaaar31qe2yre063<@.6aaap1paaaaaaap;*14epap2@y3eaaaaau24y710paaaaaaaaau<pu,eaaaaaae4aa",
"aaaaaaaaaap8<0aaq,9aaaau1iaar,taaaau81&7aaaaat42waap2@2470r5+3aaaaa2yaaaaap0-;0uaaaq,$9a98aaaar<7q17paaaaaaaaaaa69u<qaaaaaaaw6aa",
"aaaaaaaaae26uay42yaaaaa78aar<raauq4<7u6qaaay42qpaaaap61yap6$<paaaaa3yaaau71@6aaaay3334aae3aap8<834yaaaaaaaaaaaar2y<0aaaaaaaa06u9",
"aaaaaaau53tay610aaaaaap1uar-0e92<4epaa3rau51qaaaaaaaaaq<61;,uaaaaaa3tay5<954paay61qw1iaau2ay2251waaaaaaaaaaaaap2010aaaaaaaaa3&16",
"aaaaaae10pr410paaaaaaaa3-;$&239epaaaaa2y9<8paaaaaaaaaaa7%$$waaaaaaa30420ar2pae420py,yaaap<5<626paaaaaaaaaaaaaa54<9aaaaaaau7<$9aa",
"aaaaa7:7712qpaaaaaaaaaau&O0aaaaaaaaaay*15uaaaaaaaaaaay350:623qyaaay*,waap<66<2wpau,eaaaaq#471waaaaaaaaaaaaaaa8::0aaaaaar4<9y1uaa",
"0007>@:49yaaaaaaaaaaaaaq<41eaaaaaaaap1=taaaaaaaaaaau62er<rape62321@@8074-&30uaaap1qaapw23-32uaaaaaaaaaaaaaaa0*-waaaaar320pat3aaa",
"794$6ypaaaaaaaaaaaaaaa81yar13raaaaae1$eaaaaaaaaaay620ae,raaaaap4=74*8800;uaaaaap39ap023rp&4aaaaaaaaaaaaaaaa9$=raaaae32waaaa79aaa",
"ay1eaaaaaaaaaaaaaaaap43paaaaq220ua7201aaaaaaaau0310paw,yaaaaaq<7paw5aaa87aaaaaa44e416rai3%uaaaaaaaaaaaaaaa6@>yaaat33waaaaap1yaaa",
"r<raaaaaaaaaaaaaaaau15aaaaaaaar6,*&046piuutw7227raaa0<yaaaay32yaaa6qaaa1uaapit<@<4qiaau391paaaaaaaaaaaaau1+1iaay42waaaaaaaq4aaaa",
">raaaaaaaaaaaaaaaae,0aaaaaaaaaay,7q3#1223347qypaaap7<uaaaa9,qaaaap1uaap1<321:@2eiaaaau2qy2aaaaaaaaaaaaaw&@7aai7<0paaaaaaaa1raaa7",
"yaaaaaaaaaaaaaaaa7<taaaaaaaaaar<eaa59apapaaaaaaaap43paaau34uaaaaae4aaaay=1ry26aaaaaap39aw4aaaaaaaaaaau3$*waa017paaaaaaaaa94aaa62",
"aaaaaaaaaaaaaaay14paaaaaaaaaae,raae2aaaaaaaaaaaay17paaae,0aaaaaaa3eaaaaap41,7aaaaaaa67aa79aaaaaaaaap7;%2yay34uaaaaaaaaaau<yaa64p",
"aaaaaaaaaaaaap9,qaaaaaaaaaaar,yaai<taaaaaaaaaaae,0aaaa9<yaaaaaaar1aaaaaaau**4yaaaaaq3aaa2yaaaaaaau7<;-9pa91qaaaaaaaaaaaa30aa64pa",
"aaaaaaaaaaaae14uaaaaaaaaaaay<raap30aaaaaaaaaaa7<raaaa63paaaaaaaa2waaaaaar,qp023wpay1uaay2aaaaapq313,2yau34uaaaaaaaaaaaa76aa44paa",
"aaaaaaaaaat31eaaaaaaaaaaaau<eaaa46aaaaaaaaaay34paaaa44paaaaaaaa03aaaaaaq,eaaape414-4upa67pye83148410aar10aaaaaaaaaaaaa93ap34paaa",
"aaaaaaaae31qaaaaaaaaaaaaaa48aaa44aaaaaaaaap9,qaaaaa35aaaaaaaaay<uaaaaa61uaaaaaaap6=622,#,<249re5<9paa0<raaaaaaaaaaaaa03pu26aaaaa",
"aaaaau012qaaaaaaaaaaaaaaa04aap36aaaaaaaaar24uaaaaa45aaaaaaaaap1waaaau34paaaaaaaaa3raap66aaapw319paaa73uaaaaaaaaaaaaa74py<9aaaaaa",
"aay03<6taaaaaaaaaaaaaaaau<uay27aaaaaaaay4<eaaaaaa73aaaaaaaaap39aaaae,9aaaaaaaaaar3aaay1uuq3<4eaaaaa64paaaaaaaaaaaap44pw,waaaaaaa",
"3<<6epaaaaaaaaaaaaaaaaaa40aq<waaaaaaay4<0paaaaaaq1paaaaaaaap47aaap6<raaaaaaaaaaa84yew-*214qiaaaaaa64aaaaaaaaaaaaar29a8<yaaaaaaaa",
"euaaaaaaaaaaaaaaaaaaaaay3y42yaaaaapw3<0paaaaaaay<yaaaaaaaap46aaae<6paaaaaaaaaaaau=$4&<eypaaaaaaaa73aaaaaaaaaaaap61ri33paaaaaaaaa",
"aaaaaaaaaaaaaaaaaaaaaaa4:<0aaaape4<3epaaaaaaaaa3qaaaaaaaau29aay31raaaaaaaaaaaaaaau3,1paaaaaaaaaa03paaaaaaaaaaaq<7pe,9aaaaaaaaaaa",
"aaaaaaaaaaaaaaaaaaaaap0#2rurq72<30uaaaaaaaaaaa04aaaaaaaaw<way6:0paaaaaaaaaaaaaaaaaw&:9paaaaaaaar<uaaaaaaaaaae33yp4<raaaaaaaaaaaa",
"2qpaaaaaaaaaaaaaaaau7142$,2350rpaaaaaaaaaaaaap1yaaaaaau63yt4,8paaaaaaaaaaaaaaaaaae<yu410iaaaaap1eaaaaaaaap023raq<7paaaaaaaaaaaaa",
"e4<6euaaaaaaaaapy82<7uaa5:raaaaaaaaaaaaaaaaaa96aaaaaa0<692<0paaaaaaaaaaaaaaaaaaa01yaaay614quaa77aaaaaay03<4yar22yaaaaaaaaaaaaaaa",
"aauq42247800763127rpaaaaaq<7uaaaaaaaaaaaaaaaa2yaaaaw=#-<4eaaaaaaaaaaaaaaaaaaaaa73uaaaaaapq6321$700863125epar32eaaaaaaaaaaaaaaaaa",
"aaaaapye07778qruaaaaaaaaaau4;qaaaaaaaaaaaaaau,ww05-@%4epaaaaaaaaaaaaaaaaaaaaap24paaaaaaaaaaau:487780euaaay2;0paaaaaaaaaaaaaaaaaa"
};
