/* XPM */
static char *_8ca7e13f980432692cd5b6b5e672a54AeU6Odr5TDiad60X[] = {
/* columns rows colors chars-per-pixel */
"128 128 52 1 ",
"  c #9B731E",
". c #9B741E",
"X c #9C741E",
"o c #A3771E",
"O c #A4771E",
"+ c #A6781E",
"@ c #AA7A1E",
"# c #AB7B1E",
"$ c #AE7B1E",
"% c #AE7C1E",
"& c #B07C1E",
"* c #B17D1E",
"= c #B37E1F",
"- c #B67F1F",
"; c #B77F1F",
": c #B7801F",
"> c #B9801F",
", c #BB811F",
"< c #BE821F",
"1 c #BE831F",
"2 c #BF831F",
"3 c #C0831F",
"4 c #C2841F",
"5 c #C3841F",
"6 c #C3851F",
"7 c #C6861F",
"8 c #C7861F",
"9 c #C8861F",
"0 c #C8871F",
"q c #CA881F",
"w c #CC881F",
"e c #CD881F",
"r c #CE891F",
"t c #D18B1F",
"y c #D38B1F",
"u c #D48B1F",
"i c #D58C1F",
"p c #D78D1F",
"a c #D98E1F",
"s c #DB8F1F",
"d c #DC8F1F",
"f c #DD901F",
"g c #DE901F",
"h c #DF901F",
"j c #E0911F",
"k c #DF9020",
"l c #E09120",
"z c #E29220",
"x c #E59320",
"c c #E69320",
"v c #EB9520",
"b c #ED9620",
/* pixels */
"XXXXXXXXXXX -0OXXXXXXXXXXX.*< ..XXX-0@XXXXXXXXXXXXXXX =8o .XXXXXX.+8XXXXXXXXXXXXX.XO<06@ XX *0X3@XXXXXX*q$XXXXXXXXXXXXXXXX%w+.XX",
"XXXXXXXXX X,7OXXXXXXXXXXXXX3@X.XXX24o XXXXXXXXXXXXXXX-8+.XXXXXXXX.%,.XXXXXXXXXX.X$67,+XX ..+7+ ,*XXX.X<7+.XXXXXXXXXXXXXXX%7@ .XX",
"XXXXXXXX o63XXXXXXXX.X. X +7+%<0%8,X.XXXXXXXXXXXXXXX:8o.XXXXXXXXXX2$.XXXXXXX. o*73%X ..X..X7%X *,X XO6, .XXXXXXXXXXXXXXX-7OXXXXX",
"XXXXXXX.@0-XXXXXXXXX... X@wy7<-la$.X..XXXXXXXXXXX.X24X..XXXXXXXXXX4oXXXXXXX.o=82@XXX ..XX <<X..@3X.+0*X.XXXXXXXXXXXXXXX-6oXXXXXX",
"XXXXX.X:7@XXXXXXXXXXXX+,7yw+X 0kqXXXXXXXXXXXXXXX.o42XXXXXXXXXXXXX*2..X... o-8,+..XXXXXXX.,<XXX +6.@7@.XXXXXXXX..XX.X.o<6X.XXXXXX",
"XXXX.+63o.XXXXXXXXX *67:@q+.X,wo4@XXXXXXXXXXXXXX+0:XXXXXXXXXXXXXX4@.XX. X-8,o ..XXXXXXXX*6oXXX.o7$0@ XXXXXXXXXX.XXXXoq<XXXXXXXXX",
"XX.X-0*XXXXXXX  Xo-7<%X.<:XX%0OX,* XXXXXXXXXX..*q@XXXXXXXXXXXXXX%4XXX.X*02O.XX..XXXXXXX$7o XXXXow0+.XXXXXXXXXX .XO@1yaqXXXXXXXXX",
"XX%7<o.XXXXXX X@<0<oX.X,< X@w@. *, XXXXXXXXX.o24o.XXXXXXXXXXXXXX4@X.X$82+ XXXXXXXXXXX.@0@X XXXX@a@.XXXXXXXXX..o%<0kw@7yOXXXXXXXX",
"*66@XXXXXXX.X@37*oXX. -6.XOy*...@4.XXXXX....@8,X.XXXXXXXXXXXXX -,..+28@X..XXXXXXXXXX.@0@.XXX..o0wXXXXXXXXX.X@<7,,0<X,<--XXXXXXXX",
"6$X XXXXX..@37*X.XXX.-6oXX0< .X.+4XXXXX.X o,8@.XXXXXXXXXXXXXXX@t,448*X.XX.XXXXXXXXX.+q@.XXXXX.<63XXXXXXX.o,76%o-7%.$7X@6XXXXXXXX",
"XXXXXX.XXO37%X..XX X<<XXX;6XXXXX+4XXXXX.X*q,o XXXXXXXXXX. .o*3p82aao..XXXXXXXXXXXX.+q$.XXXXX.*<*< XXXX.+<7,oX$0<o +7O.o7o XXXXXX",
"XXXXX..+30*X.XX.X.o6<X. ,yXXXXXXo8XXX.X%83+...XXXXXXXX..X@283t=*a08+..XXXXXXXXXXX.@q@...XXX.O7o,-XXX @60%. @36@XXX7*.XX6o XXXXXX",
"XXXXXX-7-X.XXX .X%7*.X.-l*.XXXXXo8X.X%88@X.XXXXXXXXX.XO:83%o4:,wwo--.XXXXXXXXXXX $7@.XXXXXX.,-.3+ X%63%XX@60%XXXX3, XXX6@.XXXXXX",
"XXXX$0,oXXXXXX O<6+.. *i0XX.XXX.o8o=84@X.XXXXXXXXX.X%48-O +4,430$.$3XXXXXXXXXXXX-7+.XXXXXX.+7.o6.$33$XX*76*XXXXX,<X.XX.<%.XXX.o6",
"X.o<6@.XXXX..o-7*X.. *77$  ..XX+2p8,+..XXXXXXX  .X*82%XX @8,8*2-..o8XXXXXXXXXXX,7O.XXXXXXX ,- *766$O*<0<+XXXXX.*6oXX.X <%.XXX+7-",
"X%7* X.XXX.o-6-oXX..-0+7@@@*-<77w4X..XXXXXXX...o:82+..XX-8-4@:3X..o4oXXXXXXXXX44o.XXXXXX.Xoq7wcl7<77<$o .XXXXX%0oXXX.  ,* .X*7$ ",
"<7+XXX .o@<7,o.XXXX:7+.,a03<-%oX,%.XXX. .XXX.o-8,O..X.+4:@4@%8oXXXX8oXXXXXXX@0, .XXXXXXo$63wbbki-%+X..XXXXXX.%8+ XXXXXX3$ o22o..",
"-XXXo+*<76*o XXXXX,7oX.X-0$X .XX8+ .X+%2@.XX=8,o ...o-8%+8@@8o XXXX4+.XXXXX*q$XXXX..X%28<$*7ql60XXXXXXXXXXX.@q+...XXXX <%*8*X X+",
"636676<$o .X.. ..<6oXXXXX@7<+ X@8X@,442twX*8,O.... -4,oX8%+q@ XXXXX4@.XX.X28+.XX.X+:82$Xo<6O<76a*X XXXXXXX.@q@.XXXXXXXO0q2o +-88",
"++++X ..  XXXX o7<  XXXXXXX:7,+<w42=+X%8tq2@.. .O,8,o  2-o8$..XXXXX4+..X%8,X...X@28-o. *0*X-yo.<p2@X..X.X.%q+ XXX. XO-0a@X$38:+.",
"X..XXXXXXXXXX.@0-XXXXXXXX...+waj0$o .ow8t3..X+-44:o...-2o8%XXXXXXXX3+.o28@.X X*44*X..X28OX@i%. $3%84=+X..%0O   .X@*67-*0:82@X .X",
"XXXXXXXXXXXX *0$.XXXXXXX..@<7,16,442,pc84q,484:@XXXX.+8+8%XXXXXXXXX0+:8-X..X*82@XXX.o4,X Oy-...@4.X+,4848p3%=-,273-@OO7y-O...XXX",
"XXXXXXXXX..X<7+.XXXXXXXX%67*.o7+ Xo*pq,:3t*@XXXXXXXXX4:8*.XX.X..XX+t82o. X%82+X.XX.+8* X 0<X.X.O4.XX Xo88--2,=%@o .@30y@ .XXX.XX",
"XXXXXXXXX @0<X.XXXXX.X*76@X..,:.XX%aqX  X8XXXXXXXXX.@w8*XXXX....o2tw+..X%84+XXXXX.@8%XXX76XXXX.o8oXXXX32o    ... $66@@3XXXXXX. o",
"XXXXXXX.o-7%.XXXXXXX*7<@....$7XXX,ttOXXX.8+.XXXXXX..0p$X.XX .o%88,3- .@44@..XXXX.@0@  o7<XXXXXXo8XX.+8-XXXXXX..@44$X 2*.XXXXXXo8",
"XXXXX..%7<o.XXXXXX*73@X.XX.+7+ o48q@  XX.4+ XXXXXX.*t@ X.o$-284% X4O+24%X.XXXXX.@8+  @y7X.XXXXXo8X.*0*XXXXXXX+28$X.XO0XXXXXXXX3,",
"XXXX.@66@XXXXX. %76+ XXXX o6% o728%X XXX.4@ XXXXX.-qw838884,$XXX @0-8*X.XXXX.. O8+.X-kqXXXXX.XXO4X28+.XXXX.o,q%X..XX3*.XXXXXX2,.",
"X.X+<0*X.XXXX.+66$X.XX...o6* O7-8*.X.XXX.4@.XXXXX24+%u2++. ...XX 2p,oXXXXXXX  o8% @8a0oXXXXXXXX@w8,X.XXXXX=8:XXXXXX*4XXXXXXX22XX",
"X$67*o ..XX. <7*X.XXXXX o6* o7-6*XXXXXXX.8o ...O82X..+82o...XX.X,w%...XXXXXXXX2-o2803O.XXXXXX X3p$XXXXX.+42O.XXXX o8+..X.  22XXX",
"q3$X.X....X%7,X.XXXXXX.@7*.o7-7-.XXXXXXXo4o.  $0*XXX.. -0;o...o4k:.XXXXXXXX. *w28-44XXXXXXXXX%7a$.XXX.X-8%..XXXXXo8%.XXXX 22XXXX",
"+X.XXXXX.o<7+XXXXXXX..*7@  6,6- XXXXXX..o8.X 28@ .XXXX..o,0,@@834..XX.X..  o*uq*o22XXXXXXXX@77@7o.XX o42X.XXXXXXX4-.XX. X43oXXXX",
"XXXXXXX.@7:XXXXXXXX.+<6o..-77-X XXXXXX. @2.$82..XXX.  o@@XO*tkqw*+oXXooO%,48p,Xo4,XXXXX.X%67$X+6XXX.@8*o$@XXXXXX4,..X..o32XXXXXX",
"XXXXXXX*0@.XXXXXXXX-7*XXX@wy*XXXXXXX.XXX-3,7$.XX. .+-488a+.-8@w8<6673767<-@+7X+7-X.. .o:07%X  <* .X-t4240aO   X4,XXXX.o8:.XXXXXX",
"XXXXX <6oXX.XXX.X*7<OXX.owy$.XXXXXXX.  Xww-oX..X+-48:@X2w2-2X,2  oXoooXX   --$0$.XX+=482+XXX.o0oX+3a8-+o80- XO8-.XXX.+q=XXXXXXXX",
". X. 6,X...   o*6<@XXXX ,i@ XXX.XXX. o*wyo.XXX*68:+X .*4+t2X-3oXXXXX  XX . 77u:*:288,$XX..XX :3*8a8oX.X,2@4 *0@.XXX.%q%.XXXXXXXX",
"   o6:.X. Xo@282@..XXXX,w+. XXX.X .+,767- .+<7<@XXXX.+8o*a@,8X XXXXXXX....+wly<<-$oX..XXX.XX@i7,02 .X.@8oXq84O .X.X,0+.XXXXXXXXX",
",*$0<OO@%-384*o..XXX o<a,.XXXX  O*77-Oo6o%48*o .XXXXO7%@84q2XXXXXXXXXXX..$0*%0-X .XXXXX..X*0k-X,2XXX.+8+o-a-XX. .O44XXXXXXX.XXXX",
"*<aw36632-@o. X.XXX.@7,7+XX.+%,7q<%X X<744@X.XX.XXXX<-O7*t8 XXXXXXXXXXX+37+ X%uw@X.XXXXo*0334X-6XXXXX8-*4:3$.XX $0=XXXXXXXX.XXXX",
"X6-.XXXX  .XXXXX...-7$X7w7777<:@XXXXX-i7+X.XXXXXXX <6 6q83, XXXXXXXX X-7-o%<73,al4%XXX=8,o@0o@8oX   8t8,+ -= .o28+XXXXXXXX..XXXX",
":1 .XXXX. XXXXXX.+6<o.Xo77++XX .XXX*0d%XXXXXXXXXX.*7X%a<o@2 XXXXXXXX$76-<7<%oX-68*304w4+ O0OX8+.X@,0t,o X *,X*q:XXXXXXXXXX+@XXXX",
"8oXXXXXXXXXXXXXo;q*XXXXX ,7$X.X.X$42q,.XXXXXXXXX $7@3i%. @3.XXXXXo$6076<%o...%7X2$$w8444<y7-qq2383t0o ..X %844+.XX....o%288a+.X.",
"+XXXXXXXXXXXXX%8,o..XXXX..@76%X+44@:2XXXXXXXXXX.@a0<q<.X.@3 . X+-0yy7-O XX..+7+.2t2+..X*y,*4q-%+o*8o....X@wt$...X.Xo*48,$o2t: .+",
"..XXXXXXX .X%84+..o%,77XXX.X$7ya-X*4XXXXX..XXX+-i0$o6o.. @< +*60wy<@XXXXXXXX7%+6w8 ...*q@ X<%.. $0o  .X%430; ...X%28,@o. *4@8X@q",
"XXXXXXXX.o*84@.o*<7<*6a@XX.X*7;,8wp:@+ooo+@*24wa$. @3+++$6y77670,+..XXXXXXX,<-7*@8..o,8oXX@6XX.$0OXX@,04% 2* .o:84*X..XX+8oX8-8@",
"XXXX .X%28,+o%44,@o.@7;,..o<<+. 28*,4848442,%*q$.XXo7a76<w6@,7-o..XXXXXX..-w82o o8.@8:..XX<* X$q**288=+X..2$+28:+X.XXXXX8%XXw0OX",
"XXo@=403%o+,8,$XXX  7@O7X*7*  o6,X XXXXXX  X@0@.XXX.O33+.<37,o..XXXXXXXX.$hw$X.X.q48@.XXXX<770ay32%+X.XXX.qq4*o...XXXXX4-.@4t* X",
"4884,%oX%48=o..XXX 6- X736+.X*0*XXXXXXXXXXX%0@..XXXX X-76i<+.XXXXXXXXXXX@k8o . o-a:X.XXXXXO7ay@XXXXXXXXX%0p@X.XXXXXXX -2o,8$*- .",
"@oX..o*42@X..XXXXX-3X oy6X.+36+.XXXXXXXXXX-qO.X.XXXX.X@qia*o..X.XXXXXX.@t,   @;82qoXXXXX   -y7* XXXX.X$442,.XXXXXXXXX*0-0-X *2..",
"8@.o-8,OX.XXXXXX.%8o o4w%o:7* XXXXXXXXXXX,0o.XXXXXXX+24@,;<7,$o.. ....@w%XO-77*oX8oXXXXX X44X+66%XXX@44@.2%XXXX X.. $aw2o.X.$2 .",
"$8qw,o....XXXXX.@0O +8@,w7,oX.XXXXXXXX o24XXXXXXX.X=8*XX7o.o*<76<-*@@-d0777,@X. o8..XXXXo42X   %43,48@. +8XXXXX .o@2t2+...X.$2..",
"-84q2%o  .. X..+8@ @q,4t7o.XXXXXXXXXX.+8,XXXXXXX.+42oXX-<.XX..X+%-,;wk<*@o. .XX.@3X.XX.@8=..o@*Xo4tw4:%+2:oXoO@-28wa$ .XXXX.$2..",
",o X@282-$+ooXOq,@,tt2$:, XXXXXXXXXX.$0%.XXXXXXX*q%XXX.8+XXX.XXX. .%w@X.  XXXXX *, .XX*0@+-20<k88:oX@*,8a844842,@$0%.XXXXXX.=, X",
".XXX..o@:23848pt38a*O. *,  XXXXXXXXX,8+.XXXXX.X,4+XXX.:,XXXXXXXX..%w@XXXXXXXXXX.4@..o20240:@X,la+..X. .2-oXoXXX.+0$..XXXXXXX-*XX",
"XXXXXX....XX+8,XX3* X  :- .XXXX.XX@84o..XXXX.o4,X.XXX@8oXXXXXXXXX*a%XXXXXXXXXX o8 .%uk8,@X  %t:8+.XX..%8XX. XXX@0$.XXXXXXXXX4@ X",
"XXXXXX..XXXX4:..-3XXXX.,$.XXXX. o2kwq0X.XX..+8=XXX.Xo8@ XXXXXX.X,k,XXXXXXXXXXX.%2O4t4@XX.XX,a@ 2*.XX o8+.XXXX.$0$..XXXXXXX.X8oXX",
"XXXXXXXX..o4,X $8oXXXXX4@.XXXX@<qq:@8p@.XX.+8%.XXX. 2:..XXXXXX 6y7.XXXXXXXXXXXX0pw:o.X...X8l-  *- X.o8%.XXXXX$0@..XXXXXXXX @2XXX",
"XXXXXXXX.o8-XXX3@.XXXXo8  .+<uh7+X.*4:, ..+8%..XXXX8<.XXXXXX.+0,7+XXXXXXXX..X%wj4+.XXX..O0t4XX.@3XXO3-.XXXXX-8+.XXXXXXXXXXX,*.XX",
"XXXXXXX.+8=.XX*3  XX X@2o$qalq@...@0o+4..o8$.X.XXX22XXXXXXXX*0$-,.XXXXX.X X%wkl*XX..XX.+844XX..+0XX3, XXX.X24oXXXXXXXXXXXXX8oXXX",
"XXXXXX @0%..XX0O.XXXXX,tyka4@ .X o8$.o8oo4%.XX..X4- XXX XXo<7+o7o XXX.. X%qi<<7.XXXXX.+8,8+.XXX+3+0-XXXX.O42XXXXXXXXXXXXX.*2.XXX",
"XXXXX.*0@...X@3X XXXO3llw-o..XXX.2:...4o2,..XX.+8:X.XXX X@7,X *- .XXX+$6y7*oo7+.XXXX.+8:0O.XXXXXwq*XXXX.%q*XXXXXXXXXXXXXXo8+.XXX",
"XX .X,8OXXXX *0-,,qtqp0oXXXXXX..,2XXXX282 .X.X%8%...X. o67@...,6-,<67yky%X..6*..XXXXO3,0$.XX..X,a@XXXXX,8@.XXXXXXXXXXXXX.-,.XXXX",
"XX o32oXXXXX.o3a4tt%o8@ X XXXX.*8oXXX ,uo...+42o.X. X@<ul* XXX+wi:$$<7*XXXX<, ..XXXX3,8%..X..@848XXX.+42oX.XXXXXXXXXXXXX+8oXXX..",
"X.@0-XXXXXXX.XOtk8. %2 .XXXXX @0o...XX8,. o-8$  .X%6ad<*i6 XXX.X,0%7,oXXXX,<XXXXXX.:88*....+24@+4X.X:0*.XXXXXXXXXXXXXX. 8%..XX+:",
"X,0@XXXXXXXXo-0*@42$8o .XXXX.@q+  ...+a:o-4:o .@2wka6OX6:7o.XXX owa7+..XX<6XXXXXXX+wq%...o,8=X $2X%82o.XXXXXXXXXXXXXX..2- .o-44,",
"82oXXXXX. X-8,o.XX*aw$XXXXXX+q%.. .. <iw7:. o-qahw,o. :< <%.X. @7:X:0<@+<,X.XXXX .wa$XX%<7*o X -730@XXXXXXXXXXXXXXXX .,<X@<0,+X.",
"@X.XXXXX.@83+. XXX:<%37<*+X+7@  .o+$<hi<XX@7djy<@. X.$7o -,.X -7+X..X*qaw$+XXX.X *j,$<7<%X.. X$y0$XX XXXXXXXXXXXXXXX ,6-76$o..X.",
"XXXXXX.X,8$....X.*6oXXo%,6qaq6<66<6,-qf7yyw7-@XX....+0+X.@< X<3o.XX.X-7%*<67711<0kw4,$..  X+-000XXXXXXXXXXXXXXXXXX.X6a0,OXXXXXXX",
"XXXXXX@02X.X....%8o XX.. @w-O@@+oo.. @laq$X XXXX.. o7%.X.+6o6,X.X.X@6<o...Xo+@+6l0X.  .o@-07<O*<XXXXXXXXXXXXXXXXXX+wi,O.XXXXXXX.",
"XXXX.:8@..XXXXX-8o..XXX.Oq%X.....X.X%qy76OXXXXXXXXX6-.XX.o77- . .+<7%.XXXXXX.X,7<6$*:<6q6-@X X3@.XXXXXXXXXXX..XX+<w:o XXXXXXXX.@",
"XXXX24o...XXXX,4o ..XX.$0@..XXXX.X@7<6<.%0<+X.XXXX<<XXXX.+i*  .@37-X..XXXXXXo<6.owi<:$@....XX@7XXXXXXXXXXXXXX o-aq+.. XXXXXXX.@q",
"..+4,XXXXXX.+42X.XXX X*7+.XX... +33$.<$. o-6<%oX.,3X....o7yoo*77%XXXXXXXXXX@0- ..X37o  .XXXXX3$XXXXXXXXXXX. X,ak*XXX.XXXXXXX O7$",
".+8-XXXXXXX*8* XXXXX ,0oXXXX..o<7%X +7X..XXX%<7<6w@oo.oo77y77,@X.XXXXXXXXX-0@XXX.  %7,o .XX.*6XXXXXXXXXXX.X*ud2oXXXXXXXXXXX.o7$X",
"+q%XXXX..+83O.XXXXXO33o ..Xo.*7-o ..:, .XXXX..o<y<76637uw7w@XX.XXXXXXX. +73o XXXXXX.o-7<O  O7@+XX.XX XX  $8p3O.XXXXXXXXXXX o7*XX",
"q$..X..+,8%..XX.X.O0-X.o%<7aw<+... o7o..XXXXX.*6o XXXo*7.+6.XXXXXXXXXX.,q%XX.XXXXXXX..o*77-wi7i%...XXo@2ww:o..XXXXXXXXXXX.O0*XXX",
"@XX X@28*o.XXXX.X*0$o:48,$,iwX.X.X.,:..XXXXXX-7o XXX o7O %<.XXXXXX..X*7<o.XXXXXXXXX.XXXo-ycyyyli,,<648qa3o .XXXXXXXXXXXX.o7*XXXX",
"..@-82* .XXXXX.o20,34,+Xo6a%0oXXX.@7oXXXXXX.,6o ..XXX<-  ,* XXX.  X$66@X..XXXXXXXX..o*67-<6.+7*w*$@@o-0%X...XXXXXXXXXXXX+q%XXXXX",
"284-@XXXXXXXXX*pp8,@X..+7a< <$.X o7@ .XXXXo<3o.XXXX.@7XX.6+ . XO-777$X.XXXXXXXXX.X@<7,@ -<o 6- <@ XX28O.XXXXXXXXXXXX.X.@q%.XXXXX",
"@oX  .XX....@qlw%o.X..@86<  -,..X3-X..XX .3<XXXXXXX.<$.X+6.o@6yjhci..XXXXXXXXXXX$76*o..<3O -<X -- X4, .XXXXXXXXXXXXX..*0@.XXXXXX",
"  XXXXXX..+3t0@X.XXX.*4-7o..@<..,<XXXXX.+7,XXXXXXX.o7   :77ihaw:-67+.XXXXXXX o-7<@X .o7,XX$7o .%2o3- XXXXXXXXXXXXXXX.-q+..XXXXXX",
"X.XXXX..+4w3OX.XXXXX*4@8@...+7 ,6 XXXXX@7- XXXXXXX.@7<,6hai7*+X+7o,-.XXXXXXX-7<OX.X *7*XX+7+...+08*X.XXXXXXXXXXXXXXX<6o.XXXXXXXX",
"XXX.XX*8t;OXXXXX.X.*6O7$XXXXo736o..X..-7@.XXXXXX.X.X8vkw8oX. .o7$ $<XXXX.o-7<o....+<6+..o7$..XX@a*.XXXXXXXXXXXX.X +7<X.XXXXXXXXX",
".Xo$2aa2OXXXXXXX. %7O6-.XXX.+i,X .X.o<6o.XXXXXXX.X*42:0tO X.XX<:..O6XX.o*7,o. ..X-7*X.XX6- .XXX7wXXXXXXXXXXXXXX.X*q%XXXXXXXXXXXX",
",48ta4OXXXXXXXXXX@7+3,.X. .$0yoXXX.$q:XXXXXXXX.o-82@X 2t8$XX :6 XXo7o %7<+XX..o:0<o...o6< X.XX3<0XXXXXXXXXXX.  +7l-XXXXXXXXXXXXX",
"%:84+..XXXXXXXXXX0@,3XXX.o,6$7XXXX<7$XXXXXXXXX-7,o ..%4X@28--7. XX 6%66+...X@<7:OX ..X<<XXX..-<+7XXXXXX.XX. @,yu<u0 XXXXXXXXXXXX",
"28%...XXXXXXXXXX<:,6XX.X%7-X+6 X*0,o .XXXXXX-7,O..X.+8+. .+8k7-@+Xoyq$Xo+*<77*o.XXXXX<<.XXX.+7oO7  X.XX X@,67fw@*67+.XXXXXXXXXXX",
":...XXXXXXXXXXX@3,1XXX@6<O. @3$63@.X..XXXX*7,O..X..o8$.X..+8%@:<7wyc06666<%+.. XXXX <6X.XXXo7@ @6 XX..o-76,<7*.O0o,* XXXXXXXXXX.",
"2@X XXXXXXXXX.X8q6 o-6<@X..X<a7$X.XX.XXX@76+..XX..o8*.XX.o8%.. .<7@7*+ooXX.X.XXXXX.3<oXXXX.*<.X-, XXO<7,*;0:+  7$ %<.XXXXXXXX.X*",
"*48,@XX  .....*k7*<7,@  Xo*7i-  XXXXX.o<7%X.XXXX.O8*..X o8*...+7,..6+.  XXXXXXX. o<6XXXXXXX7+.X<$X$36*$<7,o.XX<,XX+7XXXXXXXXX ,7",
"XX@-3<7;-****;id6<$ .Xo*<7;@7+XXXXX X*0-XX.XXXX.@0%...Xo0*...%8% XX7oXXXXXXXXXX.o6<XXXXXX.*< .X0-60-<73*o ...-6XX.X7oXXXXX .X<<o",
"X  XXo@*--;-3dy$++@*<70<%o.@3XXXXX.o66+.XX..X.X:8+..X.O0=.X.:4+...O7XXXXXXXXXX.+7-  XXXXXX6%OO:law76-OXXXX..$7o.X o7oXXXXX @0:X ",
"XXXXXXX X  @3-7a63<,*@.XXX ,- XXX.$7* .XXXX.X+7<o ...O0* X.,4XXXX $<.XXXXXXX..@q*XXXXXXX..*iaulq*@oX XXX.X @7+.XXXX6OXXXXX-7@..X",
"XXXXXXXXXX*0&XO37oXX ..XXXo7o.XXX-6+oo..XXX+,7%.XXX.@0$XXX22XXXXXX-- XXXXXXX.-7@ XXXXXXX..%yd66XXXXXXXXX..+7%..XXXX3@.XX$73@XXXX",
"XXXXXXXXX<7OX XX*q*X....X.:,XX X7w<6wy. XX*7;o..XX.%q@..X22 XXXXXX6O XXXXX X<7+.XXXXXX.X+67@+uw+XXXXXXXX o7% XXXXXX6O.@0hy7iO .X",
"XXXXXXXO7<XX  XX.+67*o...+7oXX%wi3*@<y$o:6<+..X.X.:8+.X.-3. XXXXX@7.XX..X.@7,XXXXXX.X. ,7$X.+7-7<+X XXX.o7*.XXXXX. 7,7uq:+<u- XX",
"XXXXXX-0& XXXXXXXX.+,7,$O3*O,wd-X  -77y6,o..XXX.X28oXX.%4o..XX.  <*.XXX X:0% XXXXXX X$7<O..X6%.o-63*+X o6- .. XXo$<a7*o. @7$6 XX",
"XXX O63OX XXXXXXXX.. o*<yjwa7i3@*:6uq77o. XXXX.O42X.X.+8+XXXXX+*6j, XXX@7<o..XXXXX.o<6OX...:<XXX. @,01<y0$@$%*<wy0<qX...o7@X7oXX",
"X.o:7*XXXXXXXXXXXXXX .o,y<*<f7,<,2t$Xo0o .XXXX%q*XXXXX4* .X@,44,wlwXXX,0*X.XXXX...@8:X.X..$8oXXX.X..X$y<,<;<6ya7@ @3..XX6-.X6@ .",
"o*7,o.XXXXXXXXXXXX.X@2wk+.X<- .  2=   3@  X.X,8+XXXX.=2X+:84*+X+l<6%-0,o.XXXXXX..=8+XXX..+8+ XXXXX. +7*X  +,7:o.X -- .X,< X ,* X",
"7<+.XXXXXXXXXXXX..@44,q@..:6....,2XX..2$XX.@8,o.XXX.o0:48:+X..Xpy+6i<+XX.XXXXXXo,4o .X+$%8@ ..XXXX.$7% .@<7-o...XX7O .*7XXX.*: X",
"+XXXXXXXXXXXXX.X@44$$8@..@7....:8XXXX -*.X28$. XXX.o3p2@XXXX.X8c7777..XXXXXXX.X1,Xo$,83aa+.XXXX.XX*q@ +<0*XX  ..X+7XX$0oXXXX%<.X",
"XXXXXXXXXXXX..+44%X-8+.X 7@.X.%7o .X..:-*0,XXX.. +2qt+XX   X@4cw-oo6XXXXXXXX o<,$282%+-tqXXXXXX.X,8oO<7*XXXXXXXX.<* +q@.XX..$3 .",
"XXXXXXXXXXX.o,8%XX24o.X.,, ..$7+.X.X X4p3O.XXX @28*$0O@@=,48av2X   7oXXXXXX +wy72@X o4a@3$XXXXXo42o-7-XXXXXXXXX.o7oO7$.XXXX.$3..",
"XXXXXXXXX.X-8-X.*8-X.XXo7o..@7@.X XO-8t,X...X@28%X X8a33,=@2k4XXXX.6+XXX  o*qw*o..X*8a- -:XXXX@8:*8,o.XXXXXXXX..,-o7*..XXX..%2  ",
"XXXXXXXXX$82X.+44@.....:-  @q@ .O*30-o2%  .+24*XXXXX 20O X,p8oXXXXX3+...o,0a<....+4442X.@4X.X-8-42+..XXXXXXXXX.@7O7*X.XXXX. *,o-",
"XXXX...o,0+X+,8*XXXXXXX0o.@w*@,682$XXX4@ o,8*XXXXXXXXX%82800o..XXX 6+ +<7*<<.. +,8%*8XXXo3XO8324%X.XXXXXXXXX.Xo7*8=XXX..XXXX4t8,",
"XXXX  $7*X@28-XXXXXXXXX3wwfy71-@o. .XX4+=8:oXXXXXXXXX.X,taa%. .XXX 7-<6*o+6oX@67*X+8+.XXo03033,o..XXXXXXXXXX..,<8=.XXXX..+;0a-X ",
"  ..X<w:,84*XXXXXXXXXXXoil*XX. .XXXXXot0,oXXXXXXX.XX.+32*0284*+XXX+y0*. o7<,06$X.o0$.XXX*a2-0$.XXXXXXXXXXXXX.:qq*XXXX..@20,+8oXX",
"-**,7hq<=+..XXXXXXXXXX $7<7%X.XXXXX.o8w@..XXXXXXX..+,8@@0@ X@24403al-*:<wy6*+X..o4*X.X%84w38o ..XXXXXXXXXXX.*iw%.XXXX@28*X O3XXX",
"--3i<oo   XXXXXXXXXX X-7+.@76@XX.X.@8p@.XXXXXXX X+24*X@q@ XX..o,y,,u--*-wo. . .X4:X.:84@ot3X.XXXXXXXXXXXXX.-iw@.X .@48$XXX --.XX",
" o7$..XX..XXXXXXXXXXX<6o..XX*30*+X-8*8XXXX...XO*48=X.*8@  X.X%8, .$<X  -,..XX o22@28,O.o4to XXXXXXXXXXXXXX:kw+..X@38%X..XXX8o.XX",
"@7@..XXXXXXXXXXX..XO73XX..XX.XO<qtt*2,Xooo@%,44,@XX *8+.XXX+48+...;*XXX7O.XXo+8a82%o..o4-8oXXXXXXXXXXXXX+8k8+X.+28%XXXXXXX$2XXXX",
"0$X .XXXXXXXXXXX.X%w*XXXXXXX..XO0,*4a884442,*@X...X,8o.X.X-8*X ..o7oXXX776770k8$o....o8%+4 XXXXXXXXXX.X%ta, .X,7*X.XXXXXXX8@XX ,",
"+XXXXXXXXXXXXXXXX-7@.XXXXXXXXX@q%..<*XXoXXXX..XXXX<6o.. O63OXXXX.@6 XXX+w7@+7<X XXXXX4:.@2 .XXXXXX  X+2pt%.X*8-o.XXXXXXX.-2XX.,8",
"XXXXXXXXXXXXXXXO73oXXXXXXXXX.@0@. @6XXXXXXXXXXX.+7<X ..$0*XXXXXX.6$.XXX.+<70-XXX..XX,,XX,= .XXXXX..o:wu8O +42o.XXXXXXXXXo8o.X,3X",
"XXXXXXXXXXXX.X-0*X  XXXXXXXX@0OXXo7@XXXXXXXXXX.%q*XX..*0@ XXXXXX@7X.XXX. +yi3OX....%4XXX4@.XXX..X+:qww-.X-8%X.XXXXXXXX  4* X24o ",
"XXXXXXXXXX..$02o X..XXXXXX.+0@XXX6*.XXXXXXXX.X:8@.X. ,6o..XXXXXX3%.XXXX @7%.-73%o.+8o.X+4X.. .o%284q4@ o32o.XXXXXXXXXXX22.X22X. ",
"XXXXXXXX.X@48@.X.XXXXXXXXXO7%.XX6, .XXXXXXXX+42o.XXX<<XX.XXXXX.*3XXXXXX*0$.X X%383w4OXX,,X+@,382;28%XX@8-.XXXXXXXXXXX.-4oX32XXXX",
"XXXXX. X@48*X XXXXXXXXXXXX<:X.X<<X..XXXXXXX=q*XX..X6<XXXXXXX..+7O.X.XX-7+.XX.... 2w3380pq842-@@28-oXX*8@ .XXXXXXXX.. -3Xo42XXXXX",
"XX...o=48%X.XXXXXXXXXXXXX*<XXX6<XXXXXX..X@42o.XX..<<XXXXXXXXXo7%.XX.+33o..XXXXXXX4@ XX,,XXXo%44-oX .:4o.XXXXXXXXXXX :4X@8=XXXXXX",
"XX+*382@ .XXXXXXXXXXXXX.+7o.+7:XXXXXX..+48%...XXX,1XXXXXXXXXX3-.XX.$0-XXX.XXXXX.@3XXX@8O+*482$XX.. ,4X.XXXXXXXX.X.o22X%0$ XXXXXX",
"4882%XXXXXXXXXXXXXXXXXXX3*X*7%..XXX..+<q:X.XXX..*7XXXXXXXXXX6,XX o,7@.XXXXXXXXX -2O@&wt082%o..XX.X,2XXXXXXXXXX.. @8*X-0+..XXXXXX",
"@+X...XXXXXXXXXXXXXXXX.+6+33+XX...o$77*o.XXXX..+7+.XXXXX..o<, ..$7<o.XXXXXXXXXXXota3p0$OX.XXXXXXX-4XXXXXXXXXXX o,8@o42o.XXXXXXXX",
"XXXXXXXXXXXXXXXXXXXXXX.207*X  Xo%<76$XXX.XXXXX.6%XXXXXXX.+6- .+66@.X.XXXXXXXXXXXXo4q8X XXXXXXXX *8.XXXXXXXX..X*8-X$0-XXXXXXXXXXX",
"XXXXXXXXXXXXXXXXXXXXXX*a0@O@$<373-OX .XXXXXXX.*<XXXXXXXX%7% +<7*..XXXXXXXXXXXXXXXX%t0-XXXXXXXXXO0o XXXXXXX.X%43+o30@XXXXXXXXXXXX",
"8*X ...XXXXXXXXXX .o:8,4aq33<*@+X.XXXXXXXXXXXo7+.XX.X.o<6O+<0-oX.XXXXXXXXXXXXXXX.$8+o28=O ..XXO8@.  X . XO*84@X*82  XXXXXXXXXXXX",
"@202%oX. X  .XXX@:48,+.X,q@ .   XXXXXXXXXXXXX*,.XXXXX-7,:70-o..XXXXXXXXXXXXXXXXX%8+...+,82%OXX,-.   Xo+*303+.@44OXX.XXXXXXXXXXXX",
"X.o*2482--==:2484,@X.XXX %02o...XXXXXXXXXXXXX7+X..X*waw7<@X. .XXXXXXXXXXXXXX. X,8o.XXX..o%2383p,==-2288,$X @48%XXXXXXXXXXXXXXXXX",
"..X..X+$=,-,:%@oXXXXXXXXX.O30*..XXXXXXXXXXXXoq%%*<wji<$+XXXXXXXXXXXXXXXXXXXXXo<6X.XXXXX. XXXO02--,-%$+.  O8q-X.XXXXXXXXXXXXXXXXX"
};
